<svg width="164" height="48" xmlns="http://www.w3.org/2000/svg"><g fill="none" fill-rule="evenodd"><path d="M104.366 37.38c.522 1.392 4.402 2.411 6.41 1.226-3.731.16-6.41-1.227-6.41-1.227M88.184 41.033a24.63 24.63 0 01-5.466-5.402c-.441.214-.882.444-1.323.692a23.68 23.68 0 005.244 5.072c-.807.153-1.634.255-2.477.303-5.52.31-10.611-1.79-14.203-5.366l-.036-.075-1.685.432c3.909 4.278 9.7 6.84 16.013 6.485a20.076 20.076 0 0011.957-4.776 7.911 7.911 0 01-.25-1.783 18.454 18.454 0 01-7.774 4.418" fill="#B5B9C1" fill-rule="nonzero"/><path d="M63.867 3.124h36.089v14.419h-36.09z"/><path d="M71.014 9.238c.633.624.715 1.865.613 2.993-1.889.975-3.753 2.232-5.57 3.793a19.087 19.087 0 014.957-6.786m6.437-3.657c-.578 1.157-1.092 2.847-1.453 4.896a24.04 24.04 0 00-3.043 1.116c-.006-.934-.251-1.916-.9-3.2a18.393 18.393 0 015.396-2.812m4.59-.861c.454-.027.905-.037 1.354-.031-1.558 1.007-2.961 2.691-3.225 4.987-.96.092-1.924.246-2.888.467.377-2.176.946-3.908 1.593-4.96 1.023-.243 2.082-.4 3.166-.463m-10.683 9.114l-.02.08c-.212.825-.525 1.609-.885 2.371.468-.025.936-.036 1.401-.031.133-.332.248-.654.335-.962.233-.822.446-1.522.589-2.179.99-.463 1.99-.848 2.995-1.158a38.763 38.763 0 00-.307 4.682c.454.095.904.208 1.35.34-.044-1.932.052-3.751.252-5.381a22.047 22.047 0 013.084-.527c.139 1.648.845 3.55 2.385 5.686l1.595-.4c-1.587-2.07-2.34-3.86-2.516-5.379 4.137-.124 8.212.94 11.918 3.019l1.887-.474c-4.232-2.647-8.963-4.082-13.805-3.936.298-2.41 2.152-3.965 4.013-4.727 5.226.72 9.809 3.67 12.74 7.923l1.587-.398c-3.832-5.921-10.559-9.662-18.002-9.225-8.61.506-15.645 6.456-18.087 14.385a29.247 29.247 0 013.292-.845 27.12 27.12 0 014.199-2.864M113.847 36.904c-.2.512-.196 1.053-1.322 1.637.356-.579.877-1.246.837-1.989.584-.29 1.231-.42 1.869-.506-.888.346-1.333.88-1.384.858m-1.444.415l-9.436-2.492c.054-.234.397-.762.478-.82l9.175 2.465c.3.08.173.952-.217.847m-9.615-.787c.067-.002 3.387 2.532 8.483 1.69-3.314 3.392-8.514 1.06-8.483-1.69m-.757 1.8l.11-.799c1.213 2.769 4.751 3.422 6.886 2.952-.953.86-5.6.677-6.996-2.152m-.976 3.143c-1.975-.142-3.262-2.701-3.57-4.848.4 1.255 1.537 3.636 2.899 3.92-.208-2.59.365-6.38 3.279-9.018-2.927 1.701-3.966 4.454-4.18 6.474-.558-.598-.952-1.724-1.01-2.897 0-.018-.004-.03-.006-.047.507-.019.944-.626.992-1.403.008-.13.002-.256-.012-.377l.033-.033c1.142-1.627 2.949-3.413 5.628-3.899-2.698-.121-4.752 1.553-5.923 3.12-.007.008-.012.017-.018.025a.994.994 0 00-.252-.25c1.83-2.7 4.369-3.606 7.146-3.097.628.115 1.185.283 2.954.434-1.651 1.104-3.155 1.487-4.223 2.079-2.6 1.424-4.142 5.695-3.737 9.817m14.83-5.933c-1.687-.313-2.804.414-2.839.413a2717.82 2717.82 0 01-8.01-2.234l-1.13-.316c.726-1.022 2.13-1.463 3.536-2.11.608-.281 1.445-.612 2.07-1.066 1.13-.821 1.29-1.361 1.298-1.361-2.06.07-3.999-.507-4.34-.581a8.24 8.24 0 00-2.768-.124c-2.34.291-4.44 1.577-5.688 3.47 0 0-.154.209-.205.268-.164.189-.396.478-.396.478l.685.183c.474.084.208 1.153-.42.984l-3.01-.816c-1.175.102-2.401.202-3.233.265-.427.032-.9.086-1.406.164l6.673 1.822c-.478 4.52 1.86 7.3 5.157 7.577-.007-.46-.018-1.429.005-3.16 0 0 4.746 5.286 10.19-.398.04-.037.458 1.073.458 1.073 2.397.289 3.453-4.52 3.372-4.53M102.946 18.531l-.911 2.533c1.748-.903 2.127-2.37 2.33-2.914l-1.42.381zM104.07 16.31a.998.998 0 00.147-.076l.102-.07.63-2.054a.286.286 0 00-.068-.026l-.068-.013-.364.11-.666 2.221.288-.092z" fill="#B5B9C1" fill-rule="nonzero"/><path d="M80.567 31.656l-2.243.571 1.175-2.973-1.719.509-1.392 2.951-2.149.556c.315-.658 1.838-3.808 1.86-3.81 2.658-6 6.928-6.155 7.954-6.454l-3.486 8.65zm-9.396 2.423l-4.297 1.11 3.353-8.606 2.048-.548-2.67 7.152c1.526-1.13 4.192-4.869 4.807-6.632l-1.189-.73 3.966-1.017c-2.156 6.23-5.924 9.243-6.018 9.27zm-5.955 1.526l-2.261.584 1.186-3.012-1.72.51-1.436 3.002-2.126.56c.314-.657 1.86-3.864 1.88-3.866 2.66-6 6.79-6.072 7.958-6.472l-3.481 8.694zM52.774 22.108c-4.138-1.154-5.213-2.082-5.484-2.325l8.427 2.193 13.684 3.546c-.62.145-1.555.302-2.123.403l-14.504-3.817zm27.528-.123l.873-2.241c.037-.093.22-.216.467-.347.253-.134.488-.234.695-.285l1.229-.303-.205.528-.752.186.089-.204-.209.046a3.04 3.04 0 00-.45.14c-.083.037-.108.06-.117.082l-.84 2.182c-.001.002-.004.023.133.02a1.11 1.11 0 00.2-.021 1.01 1.01 0 00.29-.12c.102-.063.151-.112.167-.154l-.047-.101.823-.204-.094.244c-.046.118-.26.256-.564.396a4.004 4.004 0 01-.713.268c-.19.046-.391.066-.603.066-.269 0-.421-.052-.372-.178zm4.9-3.524l-1.024 2.632 1.247-.309-.127.326-2.005.495 1.152-2.958.757-.186zm1.836-.476l1.727-.426-.124.318-.969.239-.345.89.966-.238-.125.325-.969.24-.427 1.097.968-.239-.128.325-1.726.426 1.152-2.957zm.53 11.853l-5.67 1.474L85.2 22.64l2.238-.571-2.8 7.5c1.881-.313 2.674-1.011 4.181-2.805l-1.251 3.074zm2.137-12.452l.055 1.579 1.227-1.88.832-.226-2.412 3.26-.314-2.596.612-.137zm4.464-1.173l-.123.318-.969.24-.346.89.968-.239-.127.326-.968.24-.427 1.096.968-.24-.127.327-1.727.427 1.152-2.959 1.726-.426zm1.473-.397l-1.024 2.632 1.246-.308-.127.326-2.005.495 1.152-2.957.758-.188zm1.731-.141c.05-.126.254-.268.56-.414.252-.123.499-.216.735-.274.226-.056.443-.073.655-.062.222.01.345.063.3.176l-1.016 2.609-.758.187.434-1.116-.715.177-.435 1.116-.778.192 1.018-2.591zm4.035-1.298l.247 1.025.469-1.202.758-.186-1.152 2.957-.77.19.35-.954-.302-1.16-.762 2.29-.759.187 1.152-2.958.769-.19zm3.614-.95c.209-.05.407-.056.596-.028.188.023.305.071.268.165l-.85 2.18c-.038.098-.218.224-.471.36-.253.136-.49.238-.698.29l-1.239.306 1.153-2.961 1.241-.312zm-1.267 9.145c.916 1.857 3.312 1.684 3.84 1.228 0 0-1.175 1.999-3.18 1.795-1.737-.178-2.63-2.312-2.781-2.657l-1.337 3.706-2.024.524 3.113-8.619c.017-.023 3.275-.873 5.219-1.399.061 1.615-1.46 3.985-2.841 4.78a2.898 2.898 0 01-.217.11c0 .01.092.363.208.532zm-6.763 4.836l-5.257 1.377 3.317-8.648 5.161-1.325-.973 2.425c-.547-.816-1.194-1.211-2.479-.804l-1.027 2.756 2.353-.175-2.93 1.597-1.071 2.526c1.566-.268 2.868-1.116 4.036-2.41l-1.13 2.68zm-8.537 2.188l3.351-8.663 2.12-.54-3.34 8.662-2.13.541zm-9.67 8.103c4.147-3.611 9.557-4.733 12.801-4.969 1.97-.143 4.145-.36 5.831-.55l.477-.607a8.082 8.082 0 011.549-1.616c-5.899.895-12.124 1.18-17.322 3.64 2.26-2.337 8.228-3.673 14.812-4.694 7.247-1.09 15.01-2.91 12.26-7.076-.52-.495-.8-.626-1.214-1.186-1.792-2.426 1.276-5.2 4.718-4.973.236.016.86.113.838.134l-.845 2.172c-.692-1.115-2.939-1.377-3.235-.03-.223 1.011 1.366 1.379 2.29 3.14 1.263 2.403-.057 4.83-2.343 6.013-.887.46-1.802.85-2.74 1.186.217.045.417.093.626.13.36.094 1.643.438 2.957.498 3.395-1.997 4.4-4.888 3.41-9.082l2.634-7.077c-.02.022-6.659 1.633-9.49 2.315l1.263-3.83-29.02 7.26c-6.663-3.055-14.895-.936-21.52 2.812l2.203.56c8.256-4.112 15.906-4.286 19.2-1.036-.023-.108-6.583 3.8-7.253 4.308 3.132-6.172-2.324-4.928-7.058-2.031l5.777 1.467c-.055.17-.119.34-.19.479L50.66 20.101c-3.97-1.03-7.553-2.01-10.973-1.331 2.668 2.26 6.276 3.14 10.246 4.171l14.588 3.866a9.789 9.789 0 00-.727.344l-3.271-.864c-.03.031-.064.062-.093.093-12.451 13.096-4.261 15.288 4.805 10.251.187-.094-1.28 1.28-1.28 1.28-10.075 9.972-21.066 2.46-7.646-11.867-1.523.434-4.665 1.162-4.67 1.073a46.33 46.33 0 013.146-2.346l-1.788-.472c-1.963 1.506-3.638 3.104-4.891 4.645l3.856-.507c-11.027 17.8 6.808 20.061 15.252 8.085l14.009-3.541c-1.283 1.27-2.043 3.106-2.438 4.718z" fill="#B5B9C1" fill-rule="nonzero"/><path d="M63.576 32.135l1.372-.443.96-2.47c-1.184.396-2.332 2.913-2.332 2.913M99.121 15.253l-.013-.006a.902.902 0 00-.303.004 1.868 1.868 0 00-.388.147l-.461 1.004.714-.155.451-.994zM78.727 28.056l1.371-.443.96-2.47c-1.184.396-2.331 2.913-2.331 2.913" fill="#B5B9C1" fill-rule="nonzero"/></g></svg>