<svg width="164" height="48" xmlns="http://www.w3.org/2000/svg"><path d="M73.965 24.68l-1.21 4.357c-.255.024-.574.06-1.07.06-2.377 0-2.113-.7-1.11-4.498 1.042-3.948 1.648-4.668 3.132-4.668 1.427 0 1.438.942 1.075 2.134h3.622c.588-2.225.195-4.197-4.04-4.197-4.716 0-5.997.974-7.516 6.73-1.415 5.361-.95 6.784 4.147 6.784 2.417 0 3.43-.175 4.901-.436l1.706-6.267h-3.637m8.64 4.299c-.473 0-.637-.14-.548-.515l.821-3.152h4.846l.546-2.07h-4.847l.55-2.101c.145-.55.544-1.017 1.324-1.017h3.88l.547-2.07h-5.639c-2.338 0-3.04.41-3.95 3.857l-1.675 6.304c-.514 2.115.128 3.036 1.892 3.036h4.866c.958 0 1.575-.499 1.872-1.264l.4-1.008h-4.885m55.425 0c-.472 0-.638-.14-.549-.515l.822-3.152h4.846l.547-2.07h-4.846l.55-2.101c.145-.55.544-1.017 1.324-1.017h3.879l.547-2.07h-5.638c-2.34 0-3.043.41-3.953 3.857l-1.672 6.304c-.514 2.115.127 3.036 1.89 3.036h4.867c.958 0 1.574-.499 1.871-1.264l.4-1.008h-4.886m-79.804.017h-.995l2.342-8.869c.301 0 .415-.013 1.16-.013 2.103 0 2.1.682 1.097 4.482-1.014 3.846-1.604 4.4-3.604 4.4zm3.109-10.942h-4.851l-3.379 12.8c-.057.22.074.397.293.397h4.32c5.426 0 6.34-1.017 7.828-6.655 1.293-4.9.497-6.542-4.211-6.542zm67.852-.025c-2.794 0-4.093.059-4.856.025l-3.38 12.8c-.058.22.072.397.29.397h3.242l2.935-11.124c.3 0 .755-.026 1.216-.026 1.574 0 1.781.548 1.366 2.122l-2.28 8.632c-.058.219.073.396.292.396h3.241l2.384-9.028c.824-3.128-.578-4.194-4.45-4.194m-28.071.025l-.56 2.144h3.6c.037 0 .038.045.005.07-.575.422-.926 1.027-1.093 1.659l-2.361 8.928c-.059.219.073.396.29.396h3.48l2.924-11.053h1.783c1 0 1.61-.41 1.948-1.267l.341-.877h-10.357M50.657 31.25l3.38-12.8c.057-.22-.073-.397-.292-.397h-3.426l-3.38 12.8c-.057.22.073.397.291.397h3.427m63.388-2.034c-1.556 0-1.786-.556-.701-4.67.904-3.422 1.765-4.615 3.152-4.615 1.555 0 1.727.819.723 4.615-.992 3.762-1.972 4.67-3.174 4.67zm2.994-11.345c-4.08 0-5.849.711-7.451 6.782-1.387 5.258-.275 6.78 3.871 6.78 4.22 0 5.888-.85 7.453-6.78 1.133-4.293.903-6.782-3.873-6.782zM19.963 24.75l2.11-7.25c.204-.744 1.046-1.423 1.896-1.423h6.452c.109 0 .143.137.06.193-3.356 2.25-7.402 5.587-10.335 8.575-.077.079-.213.016-.183-.094m5.097 4.352l2.09-7.155c.03-.109-.089-.187-.178-.112-3.073 2.588-6.78 6.37-9.099 9.23-.059.073-.029.184.073.184h9.039c3.811 0 5.897-1.157 6.653-3.92.616-2.253-.588-3.788-2.511-4.183-.034-.008-.065-.071 0-.083 1.627-.272 3.267-.913 3.852-3.237.633-2.515-1.33-3.894-3.588-3.751l-3.454 11.848c-.187.64-.887 1.18-1.55 1.18H25.06m19.641-3.146c-.12-.393-.251-.68-.442-.915-.025-.03-.031-.07.014-.084 1.548-.468 2.561-1.426 2.991-3.05.566-2.146-.816-3.856-4.305-3.856h-5.186l-3.38 12.8c-.058.22.072.397.292.397h3.24l2.937-11.124c.313 0 .613-.013 1.36-.013 1.25 0 1.71.755 1.442 1.774-.355 1.343-1.417 2.097-2.68 2.097h-.477l1.349 6.386c.16.623.48.88 1.21.88h2.893l-1.258-5.292m44.106.822c-1.373 3.214.417 4.67 4.06 4.67 3.327 0 5.173-.775 5.965-3.772.27-1.024.097-2.13-.546-2.812-1.245-1.326-3.636-1.573-4.477-2.341-.428-.39-.424-.937-.3-1.407.228-.864.82-1.334 1.78-1.334 1.502 0 1.541.906 1.171 1.981h3.226c.76-2.245-.235-4.007-4.035-4.007-3.196 0-4.922 1.231-5.542 3.585-.17.646-.108 1.7.287 2.36.878 1.473 3.203 1.657 4.49 2.533.56.38.578.895.428 1.46-.29 1.1-.853 1.623-1.975 1.623-1.078 0-1.726-.614-1.108-2.54h-3.424" fill="#B5B9C1" fill-rule="evenodd"/></svg>