<svg width="164" height="48" xmlns="http://www.w3.org/2000/svg"><g fill="#B5B9C1" fill-rule="nonzero"><path d="M86.818 23.352c1.22.811 2.091 1.892 2.255 3.4.289 2.66-.584 5.213-3.2 6.68-1.433.804-2.991 1.168-4.603 1.306-.885.076-1.778.065-2.667.092-.12.004-.24 0-.375 0v-5.48c.146 0 .276.005.405-.001.714-.034 1.43-.053 2.142-.115.223-.02.459-.123.65-.248.617-.403.574-1.368-.1-1.65-.553-.232-1.152-.353-1.734-.51-1.748-.47-3.52-.862-5.144-1.718-1.126-.594-2.123-1.35-2.768-2.485-.96-1.69-.986-3.447-.299-5.246 1.01-2.643 2.973-4.011 5.684-4.263 1.228-.114 2.469-.088 3.707-.094v-.008h.798v5.628h-.08v.004h-.346c-.736.004-1.473.017-2.21.017-.74 0-.998.25-1.061.554-.07.336-.018.73.278.932.26.177.543.278.84.37 1.261.389 2.535.734 3.797 1.122 1.4.43 2.792.89 4.031 1.714v-.001zm26.74 11.38l-5.632-9.397c.608-.281 1.191-.533 1.759-.816 1.896-.949 2.9-2.495 2.98-4.646.06-1.605-.244-3.105-1.295-4.368-.93-1.12-2.17-1.701-3.542-2.037-.884-.217-1.775-.3-2.67-.328l-.01-.012h-3.261l.01 4.733v.034c.636 0 1.24-.032 1.839.01.535.037 1.085.092 1.593.253.81.258 1.222.929 1.196 1.76-.026.828-.413 1.42-1.29 1.603-1.08.225-2.202.244-3.05.269a.737.737 0 00-.11.008h-.188v5.457l4.254 7.503h7.417l-.015-.025.015-.001z"/><path d="M82.784 18.59h5.52v-5.56h-5.52v5.56zM71.548 34.832h5.417v-5.457h-5.417v5.457zm-6.096-6.504c-1.875.598-3.78.907-5.742.54-1.162-.217-2.215-.676-3.028-1.579-1.575-1.747-1.62-4.884-.102-6.797.851-1.072 1.946-1.722 3.352-1.88v-.12l.014.12v-5.605h-.414a10.145 10.145 0 00-5.15 1.474c-3.215 1.953-5.047 4.831-5.342 8.631-.292 3.764 1.001 6.894 3.926 9.262 2.117 1.713 4.597 2.438 7.27 2.541 2.087.08 4.11-.297 6.094-.934a.591.591 0 00.095-.04l.192-.066V27.91l-.192.082c-.324.112-.646.232-.973.336z"/><path d="M61.152 18.65h5.526V13h-5.526v5.65zm30.802-.64h2.307v16.822h6.385V13.17h-8.692v4.84z"/></g></svg>