<svg width="164" height="48" xmlns="http://www.w3.org/2000/svg"><path d="M127.496 25.496c0-4.585 3.493-7.816 8.12-7.816 4.63 0 8.122 3.231 8.122 7.816 0 4.584-3.493 7.815-8.121 7.815s-8.121-3.274-8.121-7.815zm11.658 0c0-2.14-1.354-3.711-3.493-3.711-2.14 0-3.493 1.571-3.493 3.71 0 2.14 1.353 3.712 3.493 3.712 2.139 0 3.493-1.528 3.493-3.711zm-14.715-3.624c.306.611.437 1.266.437 1.965 0 1.659-.873 3.187-2.27 4.366 1.92.917 3.056 3.143 3.056 5.24 0 3.929-3.187 6.549-8.034 6.549-4.846 0-8.034-2.577-8.034-6.55a5.83 5.83 0 013.057-5.24c-1.441-1.178-2.27-2.706-2.27-4.365 0-3.45 2.706-5.982 6.985-5.982 2.533 0 3.275.437 4.716.437a4.895 4.895 0 002.794-.743c.306-.174.611-.305.96-.305.568 0 .874.567.874 1.266.13 1.528-.83 2.882-2.27 3.362zm-3.274 11.44c0-1.747-1.354-2.97-3.493-2.97-2.14 0-3.493 1.18-3.493 2.97 0 1.658 1.484 2.968 3.493 2.968 2.008 0 3.493-1.31 3.493-2.969zm-6.331-9.213c.043 1.528 1.353 2.75 2.925 2.707 1.485-.044 2.62-1.223 2.707-2.707 0-1.572-1.135-2.664-2.794-2.664-1.66 0-2.838 1.048-2.838 2.664zm-7.335 1.702v5.458c0 1.048-.393 1.485-1.529 1.485h-1.528c-1.135 0-1.528-.437-1.528-1.485v-5.327c0-1.353-.218-2.314-.699-2.925-.567-.699-1.44-1.048-2.314-1.004-.916-.044-1.79.35-2.401 1.004-.524.611-.873 1.572-.873 2.882v5.326c0 1.092-.48 1.485-1.528 1.485H93.57c-1.047 0-1.528-.393-1.528-1.485V18.99c0-.698.35-1.004.873-1.004.786 0 1.878.655 2.708 1.921a6.648 6.648 0 014.933-2.183c2.227 0 4.017.786 5.196 2.096 1.179 1.31 1.747 3.1 1.747 5.981zM83.659 13.49c0-1.397 1.179-2.489 2.533-2.489h.087c1.353.087 2.401 1.266 2.314 2.62-.087 1.353-1.266 2.401-2.62 2.314-1.31-.044-2.314-1.135-2.314-2.445zm.306 17.77V19.776c0-1.048.393-1.528 1.528-1.528h1.528c1.135 0 1.528.437 1.528 1.528V31.26c0 1.048-.393 1.485-1.528 1.485h-1.528c-1.135 0-1.528-.437-1.528-1.485zm-8.078 0V16.851c0-3.624 2.009-5.676 3.712-5.676.524 0 .873.349.873 1.004v19.08c0 1.092-.437 1.485-1.528 1.485h-1.529c-1.047 0-1.528-.393-1.528-1.485zm-18.862-5.763c0-4.585 3.493-7.816 8.121-7.816 4.629 0 8.122 3.231 8.122 7.816 0 4.584-3.493 7.815-8.122 7.815-4.628 0-8.12-3.274-8.12-7.815zm11.614 0c0-2.14-1.353-3.711-3.493-3.711-2.139 0-3.492 1.571-3.492 3.71 0 2.14 1.353 3.712 3.492 3.712 2.14 0 3.493-1.528 3.493-3.711zm-13.971-5.72v12.225c0 .699-.35 1.005-.874 1.005-.786 0-1.877-.655-2.663-1.878a6.208 6.208 0 01-4.846 2.14 6.737 6.737 0 01-4.716-1.747c-1.354-1.31-2.096-3.318-2.096-6.2v-5.545c0-1.048.393-1.528 1.528-1.528h1.529c1.135 0 1.528.437 1.528 1.528v5.152c0 1.747.305 2.664.873 3.275a2.76 2.76 0 002.052.786c.83 0 1.616-.306 2.183-.917.568-.611.873-1.572.873-3.057v-5.239c0-1.091.48-1.528 1.529-1.528h1.528c1.091 0 1.572.437 1.572 1.528zM36.33 12.18V32c0 .699-.35 1.005-.874 1.005-.786 0-1.877-.655-2.663-1.834-.96 1.135-2.925 2.14-5.196 2.14-4.54 0-7.597-3.319-7.597-7.816s3.144-7.816 7.597-7.816c1.485 0 2.926.437 4.192 1.266v-2.095c0-3.624 2.052-5.676 3.711-5.676.524 0 .83.349.83 1.004zm-4.541 13.317c0-2.227-1.572-3.711-3.537-3.711-1.965 0-3.58 1.484-3.58 3.71 0 2.228 1.572 3.712 3.58 3.712 2.009 0 3.537-1.44 3.537-3.711z" fill="#B5B9C1" fill-rule="nonzero"/></svg>