<svg width="164" height="48" xmlns="http://www.w3.org/2000/svg"><g fill="#B5B9C0" fill-rule="nonzero"><path d="M98.185 27.415a3.84 3.84 0 01-3.835-3.836 3.84 3.84 0 013.835-3.835 3.84 3.84 0 013.836 3.835 3.84 3.84 0 01-3.836 3.836m0-9.952a6.114 6.114 0 00-6.116 6.116 6.114 6.114 0 006.116 6.116 6.114 6.114 0 006.116-6.116c0-3.358-2.736-6.116-6.116-6.116M90.701 27.726h.498v2.301H90.7a4.805 4.805 0 01-4.79-4.789V14.727h2.302v3.068h2.965v2.301h-2.965v5.163c0 1.347 1.12 2.467 2.488 2.467M118.73 27.415a3.84 3.84 0 01-3.835-3.836 3.84 3.84 0 013.836-3.835 3.84 3.84 0 013.835 3.835c-.02 2.136-1.741 3.836-3.835 3.836m0-9.952a6.114 6.114 0 00-6.116 6.116 6.114 6.114 0 006.116 6.116 6.114 6.114 0 006.116-6.116c0-3.358-2.737-6.116-6.116-6.116M136.332 27.415a3.84 3.84 0 01-3.835-3.836 3.84 3.84 0 013.835-3.835 3.84 3.84 0 013.836 3.835 3.84 3.84 0 01-3.836 3.836m0-9.952a6.114 6.114 0 00-6.116 6.116 6.114 6.114 0 006.116 6.116 6.061 6.061 0 003.918-1.43v1.202h2.198v-5.701-.187c0-3.358-2.737-6.116-6.116-6.116M110.624 17.463h1.1v2.302h-1.1a2.495 2.495 0 00-2.487 2.488v7.297h-2.302v-7.297a4.805 4.805 0 014.79-4.79M126.381 14.416h2.301v15.093h-2.301zM70.612 22.564v7.276H68.31v-7.276a2.495 2.495 0 00-2.487-2.488 2.495 2.495 0 00-2.488 2.488v7.276h-2.301v-7.276a2.495 2.495 0 00-2.488-2.488 2.495 2.495 0 00-2.488 2.488v7.276h-2.301v-7.276c0-2.633 2.156-4.79 4.768-4.79 1.472 0 2.757.643 3.649 1.68a4.762 4.762 0 013.649-1.68 4.805 4.805 0 014.789 4.79M78.283 27.726a3.84 3.84 0 01-3.836-3.836 3.84 3.84 0 013.836-3.835 3.84 3.84 0 013.835 3.835c0 2.115-1.742 3.836-3.835 3.836m0-9.952a6.118 6.118 0 00-6.137 6.116 6.114 6.114 0 006.116 6.116 6.114 6.114 0 006.116-6.116c.02-3.358-2.716-6.116-6.095-6.116M34.911 10c7.775 0 13.911 6.261 13.911 13.911 0 7.692-6.22 13.911-13.91 13.911-7.692 0-13.912-6.22-13.912-13.91C21 16.22 27.22 10 34.911 10zm4.147 3.42l-4.126 13.684-.02.02-.042-.02-4.126-13.683-5.328 17.518h.995s.663-3.047 1.762-4.872c.601-.995 1.514-1.803 2.737-1.783.87.021 1.617.498 2.55 1.804.207.29.456.767.705 1.223.394.767.725 1.555.725 1.555s.871-1.99 1.43-2.778c.934-1.306 1.68-1.783 2.551-1.804 1.223-.02 2.156.788 2.737 1.783 1.098 1.825 1.762 4.872 1.762 4.872h.995l-5.307-17.518z"/></g></svg>