<svg width="164" height="48" xmlns="http://www.w3.org/2000/svg"><g fill="#B5B9C1" fill-rule="nonzero"><path d="M27.359 18.5c-1.275 0-2.448.558-3.387 1.48v-.938H20v17.809h3.951v-.125h.021v-5.374c.94.921 2.112 1.479 3.387 1.479 3.085 0 5.582-3.205 5.582-7.165S30.444 18.5 27.359 18.5zm-.983 3.167c.573 0 1.087.278 1.526.708.122.117.25.252.356.396.015.02.027.04.042.062.005.008.015.013.02.02.118.172.22.343.314.542l.021.042c.018.039.025.086.042.125.074.174.154.351.209.542.064.223.112.466.146.708v.02c.035.25.063.507.063.771v.021c0 .264-.027.522-.063.77v.022a5.08 5.08 0 01-.146.708c-.002.006.002.014 0 .02-.415 1.413-1.394 2.417-2.53 2.417-.196 0-.38-.047-.564-.104a2.084 2.084 0 01-.502-.23c-.004-.002-.016.003-.02 0a2.764 2.764 0 01-.46-.374 3.293 3.293 0 01-.398-.48c-.1-.147-.191-.3-.272-.458-.01-.02-.011-.042-.02-.062a4.401 4.401 0 01-.105-.23c-.02-.05-.044-.094-.063-.145v-.02a5.199 5.199 0 01-.334-1.855c0-2.168 1.224-3.936 2.738-3.936zM34.07 19v13.352h3.993v-.146h.02V23.98c.534-.8 1.885-1.44 3.638-1.604.077-.007.154.004.23 0V19h-.669a7.39 7.39 0 00-1.254.292c-.014.004-.028.015-.042.02l-.982.5-.272.146-.648.333V19H34.07zm9.173.139h3.994v13.213h-3.994V19.139zm11.962-.514c-3.774 0-6.815 3.155-6.815 7.061 0 3.907 3.041 7.082 6.815 7.082 1.725 0 3.292-.677 4.495-1.77l-1.902-2.75c-.567.917-1.417 1.52-2.383 1.52-1.714 0-3.115-1.836-3.115-4.102 0-2.267 1.401-4.104 3.115-4.104.997 0 1.88.636 2.446 1.604l1.693-2.937a6.677 6.677 0 00-4.349-1.604zm39.074.25c-1.307 0-2.5.447-3.345 1.146v-.875H86.94v13.206h3.993V23.5c.394-.815 1.144-1.375 2.007-1.375.848 0 1.58.541 1.986 1.333v9.04h3.993v-9.123c.004-.198.005-.402 0-.604.003-.05 0-.096 0-.146a2.94 2.94 0 00-.02-.354c-.003-.014 0-.028 0-.042-.25-1.876-2.224-3.354-4.621-3.354h.001z"/><path d="M66.303 18.396c-2.654 0-4.94 1.59-6.062 3.91-.018.049-.046.094-.063.144a10.988 10.988 0 00-.585 3.578c.005.124.011.248.02.372.06.788.205 1.551.419 2.296a7.405 7.405 0 002.049 2.875l.062.041a7.184 7.184 0 004.098 1.262c3.034 0 5.611-1.796 6.418-4.24l-2.718-1.137c-.6 1.368-1.771 2.295-3.136 2.295-1.507 0-2.765-1.147-3.282-2.75-.018-.057-.047-.109-.063-.166v-.083c-.035-.136-.08-.272-.104-.413v-.021h9.68a14.16 14.16 0 00-.21-2.771l-.042-.166c-.858-2.909-3.418-5.026-6.48-5.026h-.001zm-.209 2.896c.098-.012.214 0 .314 0 1.413 0 2.553 1.172 2.801 2.73h-5.644c.236-1.452 1.25-2.579 2.53-2.73h-.001zm8.266-7.542h3.993v18.602H74.36V13.75zm6.357 5.389h3.994v13.213h-3.994V19.139zm25.887-.743c-2.655 0-4.94 1.59-6.063 3.909-.017.05-.045.095-.062.145a10.987 10.987 0 00-.586 3.578c.04.904.188 1.8.439 2.668a7.405 7.405 0 002.049 2.875l.063.041a7.184 7.184 0 004.097 1.262c3.035 0 5.612-1.797 6.419-4.24l-2.718-1.138c-.6 1.368-1.771 2.296-3.136 2.296-1.507 0-2.765-1.147-3.282-2.75-.018-.057-.047-.11-.063-.166v-.083c-.035-.136-.08-.272-.105-.414 0-.006.002-.014 0-.02h9.68a14.1 14.1 0 00-.21-2.772c-.015-.055-.027-.11-.04-.165-.86-2.909-3.419-5.026-6.482-5.026zm-.209 2.895c.097-.011.214 0 .314 0 1.413 0 2.553 1.173 2.801 2.73h-5.644c.236-1.451 1.25-2.578 2.53-2.73h-.001zm10.524 9.911c0 .838-.682 1.518-1.524 1.518s-1.525-.68-1.525-1.518c0-.84.683-1.52 1.525-1.52.842 0 1.524.68 1.524 1.52zm4.678-6.192c-2.174 0-3.927 1.736-3.927 3.884 0 2.149 1.753 3.895 3.927 3.895.994 0 1.897-.373 2.59-.974l-1.096-1.512c-.327.504-.817.837-1.373.837-.987 0-1.795-1.01-1.795-2.257s.808-2.257 1.795-2.257c.574 0 1.083.35 1.409.882l.976-1.615a3.957 3.957 0 00-2.506-.882v-.001zm6.8-.153c-2.232 0-4.056 1.761-4.056 3.956 0 2.195 1.824 3.976 4.056 3.976s4.035-1.78 4.035-3.976c0-2.195-1.803-3.956-4.035-3.956zm-.042 1.777c.974 0 1.777.98 1.777 2.18 0 1.2-.803 2.179-1.777 2.179-.973 0-1.756-.98-1.756-2.18 0-1.2.783-2.18 1.756-2.18v.001zM137.45 25c-.72 0-1.373.243-1.84.624v-.229h-2.28v7.02h2.28v-5.083c.158-.427.496-.729.899-.729.405 0 .747.298.898.73.003.006-.002.014 0 .02v5.062h2.28V27.29c.164-.404.489-.688.877-.688.398 0 .744.29.9.708v5.083h2.278v-6.31c-.428-.643-1.258-1.084-2.237-1.084-.835 0-1.578.32-2.049.813-.461-.49-1.175-.813-2.007-.813l.001.001zm-90.282-8.996c0 1.098-.894 1.99-1.997 1.99a1.993 1.993 0 01-1.997-1.99c0-1.1.894-1.99 1.997-1.99 1.103 0 1.997.89 1.997 1.99zm37.474 0c0 1.098-.894 1.99-1.997 1.99a1.993 1.993 0 01-1.997-1.99c0-1.1.894-1.99 1.997-1.99 1.103 0 1.997.89 1.997 1.99zm61.195 6.283a2.003 2.003 0 00-2.007 2c0 1.104.898 2 2.007 2a2.003 2.003 0 002.007-2c0-1.105-.899-2-2.007-2zm-.008.292a1.71 1.71 0 011.712 1.708 1.71 1.71 0 01-1.712 1.707 1.71 1.71 0 01-1.713-1.707 1.71 1.71 0 011.713-1.708z"/><path d="M145.174 23.383v1.792h.211v-.7h.773l.184.178v.526h.211v-.618l-.2-.195a.527.527 0 00.27-.469.513.513 0 00-.402-.514h-1.047zm.211.223h.805a.369.369 0 01.007.653h-.812v-.653z"/></g></svg>