<svg width="164" height="48" xmlns="http://www.w3.org/2000/svg"><path d="M111.562 19.285c3.341 0 5.467 1.66 5.467 4.92v6.625h-3.074l.013-1.31c-.616.925-1.936 1.635-3.571 1.634-2.635 0-4.24-1.703-4.239-3.548 0-2.108 1.632-3.282 3.69-3.57 0 0 3.379-.4 3.859-.464 0-1.392-1.298-1.707-2.59-1.707-1.325 0-2.379.462-3.193 1.007l-1.206-2.097c1.264-.894 2.925-1.49 4.844-1.49zm2.249 6.24l-2.909.415c-.854.12-1.53.575-1.53 1.485-.002.695.526 1.367 1.605 1.367 1.405 0 2.833-.656 2.834-2.74v-.527zm-73.642-4.709c.839-1.114 2.09-1.51 3.377-1.51 2.673 0 4.58 1.776 4.58 4.387v7.159h-3.17v-6.185c0-1.623-.85-2.517-2.297-2.517-1.36 0-2.49.846-2.49 2.54v6.162h-3.171V15h3.171V20.816zm41.97 2.876v7.159H78.98v-6.185c0-1.623-.862-2.517-2.296-2.517-1.36 0-2.49.846-2.49 2.541v6.162h-3.17v-6.185c0-1.625-.85-2.518-2.297-2.518-1.36 0-2.49.846-2.49 2.541v6.162h-3.17V19.608h3.085v1.323c.838-1.195 2.126-1.625 3.463-1.625 1.7 0 3.097.73 3.887 1.926.911-1.427 2.453-1.926 3.996-1.926 2.77 0 4.641 1.776 4.641 4.386zm14.2 1.531c0 3.377-2.455 5.918-5.699 5.918-1.628 0-2.758-.626-3.523-1.531v1.24h-3.098V15.013h3.159v5.769c.765-.882 1.87-1.474 3.45-1.474 3.256 0 5.71 2.541 5.71 5.918v-.002zm-9.253 0c0 1.776 1.228 3.099 3.026 3.099 1.87 0 3.036-1.381 3.036-3.098 0-1.718-1.166-3.098-3.036-3.098-1.798 0-3.026 1.323-3.026 3.098zm42.089-3.793l-2.285 1.822c-.715-.731-1.482-1.126-2.514-1.126-1.64 0-2.952 1.23-2.952 3.098 0 1.88 1.3 3.098 2.94 3.098 1.02 0 1.895-.441 2.563-1.137l2.26 1.844c-1.105 1.358-2.759 2.112-4.725 2.112-3.755 0-6.27-2.506-6.27-5.917 0-3.4 2.515-5.918 6.27-5.918 1.966 0 3.63.766 4.713 2.123v.001zm12.175-1.822l-4.265 4.203L142 30.85h-3.858l-3.28-5.09-1.434 1.416v3.675h-3.17v-15.84h3.17v8.776l4.107-4.179h3.816-.001zM57.87 29.645c-.838 1.113-2.088 1.509-3.376 1.509-2.673 0-4.58-1.775-4.58-4.386V19.61h3.17v6.184c0 1.624.85 2.518 2.297 2.518 1.36 0 2.49-.847 2.49-2.541v-6.162h3.17V30.85h-3.17v-1.207zm38.887-10.036h1.725v-3.341h3.16v3.341h3.513v2.693h-3.513v4.756c0 .787.57 1.264 1.194 1.264.658 0 1.513-.395 1.513-.395l1.022 2.408s-1.086.794-3.511.794c-1.604 0-3.378-1.159-3.378-3.41V22.3h-1.725v-2.692.001zm-66.095-.307v7.141c0 1.23-.339 2.44-.983 3.508l-.712 1.178-.712-1.179a6.78 6.78 0 01-.983-3.508v-5.627c.842-1.117 2.098-1.513 3.39-1.513zM22 18.028V15h13.935v3.028H22z" fill="#B5B9C1" fill-rule="nonzero"/></svg>