<?xml version="1.0" encoding="utf-8"?>
<!-- Generator: Adobe Illustrator 25.3.1, SVG Export Plug-In . SVG Version: 6.00 Build 0)  -->
<svg version="1.1" id="Layer_1" xmlns="http://www.w3.org/2000/svg" xmlns:xlink="http://www.w3.org/1999/xlink" x="0px" y="0px"
	 viewBox="0 0 100 100" style="enable-background:new 0 0 100 100;" xml:space="preserve">
<style type="text/css">
	.st0{fill:none;stroke:#0094D2;stroke-width:2;stroke-linecap:round;stroke-linejoin:round;stroke-miterlimit:10;}
	.st1{fill:#FFFFFF;stroke:#0094D2;stroke-width:2;stroke-linecap:round;stroke-linejoin:round;stroke-miterlimit:10;}
	.st2{fill:#0094D2;}
	.st3{fill:none;stroke:#0094D2;stroke-width:2;stroke-linecap:square;stroke-linejoin:round;stroke-miterlimit:10;}
	.st4{fill:#FFFFFF;stroke:#0094D2;stroke-width:1.7573;stroke-linecap:round;stroke-linejoin:round;stroke-miterlimit:10;}
	.st5{fill:none;stroke:#0094D2;stroke-width:1.7573;stroke-linecap:round;stroke-linejoin:round;stroke-miterlimit:10;}
	.st6{fill:none;stroke:#0094D2;stroke-width:1.7573;stroke-linecap:square;stroke-linejoin:round;stroke-miterlimit:10;}
	.st7{fill:#FFFFFF;}
	.st8{fill:none;stroke:#0094D2;stroke-width:1.5744;stroke-linecap:round;stroke-linejoin:round;stroke-miterlimit:10;}
	.st9{fill:#FFFFFF;stroke:#0094D2;stroke-width:1.5744;stroke-linecap:round;stroke-linejoin:round;stroke-miterlimit:10;}
	.st10{fill:#FFFFFF;stroke:#0094D2;stroke-width:1.5059;stroke-linecap:round;stroke-linejoin:round;stroke-miterlimit:10;}
	.st11{fill:none;stroke:#0094D2;stroke-width:1.5059;stroke-linecap:round;stroke-linejoin:round;stroke-miterlimit:10;}
</style>
<g id="color_swatch-painting_1_">
	<path class="st0" d="M30.9,3.7H9.7c-3.3,0-6,2.7-6,6v72.5"/>
	<path class="st0" d="M68,19.3L49.7,8.7c-2.9-1.7-6.6-0.7-8.3,2.2L5.9,72.4c-0.1,0.1-0.1,0.3-0.2,0.4"/>
	<path class="st0" d="M92.3,51.3L81.7,33c-1.7-2.9-5.4-3.9-8.3-2.2L12,66.3c-0.1,0.1-0.3,0.2-0.4,0.3"/>
	<g>
		<path class="st1" d="M20.3,97.3h71c3.3,0,6-2.7,6-6V70.1c0-3.3-2.7-6-6-6h-71c-9.2,0-16.6,7.4-16.6,16.6l0,0
			C3.7,89.9,11.1,97.3,20.3,97.3z"/>
		<rect x="33.9" y="73.2" class="st0" width="54.4" height="15.1"/>
		<circle class="st2" cx="20.3" cy="80.7" r="3"/>
		<line class="st3" x1="52" y1="73.2" x2="52" y2="88.3"/>
		<line class="st3" x1="70.1" y1="73.2" x2="70.1" y2="88.3"/>
	</g>
</g>
</svg>
