<?xml version="1.0" encoding="utf-8"?>
<!-- Generator: Adobe Illustrator 25.3.1, SVG Export Plug-In . SVG Version: 6.00 Build 0)  -->
<svg version="1.1" id="Layer_1" xmlns="http://www.w3.org/2000/svg" xmlns:xlink="http://www.w3.org/1999/xlink" x="0px" y="0px"
	 viewBox="0 0 100 100" style="enable-background:new 0 0 100 100;" xml:space="preserve">
<style type="text/css">
	.st0{fill:none;stroke:#0094D2;stroke-width:2;stroke-linecap:round;stroke-linejoin:round;stroke-miterlimit:10;}
	.st1{fill:#FFFFFF;stroke:#0094D2;stroke-width:2;stroke-linecap:round;stroke-linejoin:round;stroke-miterlimit:10;}
	.st2{fill:#0094D2;}
	.st3{fill:none;stroke:#0094D2;stroke-width:2;stroke-linecap:square;stroke-linejoin:round;stroke-miterlimit:10;}
	.st4{fill:#FFFFFF;stroke:#0094D2;stroke-width:1.7573;stroke-linecap:round;stroke-linejoin:round;stroke-miterlimit:10;}
	.st5{fill:none;stroke:#0094D2;stroke-width:1.7573;stroke-linecap:round;stroke-linejoin:round;stroke-miterlimit:10;}
	.st6{fill:none;stroke:#0094D2;stroke-width:1.7573;stroke-linecap:square;stroke-linejoin:round;stroke-miterlimit:10;}
	.st7{fill:#FFFFFF;}
	.st8{fill:none;stroke:#0094D2;stroke-width:1.5744;stroke-linecap:round;stroke-linejoin:round;stroke-miterlimit:10;}
	.st9{fill:#FFFFFF;stroke:#0094D2;stroke-width:1.5744;stroke-linecap:round;stroke-linejoin:round;stroke-miterlimit:10;}
	.st10{fill:#FFFFFF;stroke:#0094D2;stroke-width:1.5059;stroke-linecap:round;stroke-linejoin:round;stroke-miterlimit:10;}
	.st11{fill:none;stroke:#0094D2;stroke-width:1.5059;stroke-linecap:round;stroke-linejoin:round;stroke-miterlimit:10;}
</style>
<g id="design_2_">
	<g>
		<path class="st4" d="M83.7,16.3l-9.2,21.4v53.5c0,3.4,2.7,6.1,6.1,6.1h6.1c3.4,0,6.1-2.7,6.1-6.1V37.8L83.7,16.3z"/>
		<line class="st5" x1="82.1" y1="20.9" x2="85.2" y2="20.9"/>
		<polyline class="st5" points="92.8,39.3 83.7,39.3 83.7,85.2 92.8,85.2 		"/>
	</g>
	<g>
		<line class="st6" x1="7.2" y1="28.6" x2="13.3" y2="28.6"/>
		<g>
			<polyline class="st4" points="7.2,83.7 7.2,2.6 31.6,2.6 31.6,56.1 			"/>
			<line class="st6" x1="7.2" y1="46.9" x2="16.3" y2="46.9"/>
			<line class="st6" x1="7.2" y1="65.3" x2="13.3" y2="65.3"/>
		</g>
		<circle class="st2" cx="19.4" cy="14.8" r="3.1"/>
	</g>
	<g>
		<polyline class="st4" points="64.7,65.3 50,48.5 7.2,97.4 65.3,97.4 		"/>
		<polygon class="st5" points="50,68.6 35.5,85.2 64.5,85.2 		"/>
	</g>
</g>
</svg>
