<svg viewBox="0 0 754 433" xmlns="http://www.w3.org/2000/svg"><g transform="translate(-89 -88)" fill="none" fill-rule="evenodd"><circle stroke="#204ECF" stroke-width="2" transform="rotate(-14.471 305.597 305.011)" cx="305.597" cy="305.011" r="135.504"/><circle stroke="#204ECF" opacity=".8" transform="rotate(-45 305.585 304.972)" cx="305.585" cy="304.972" r="155.499"/><circle stroke="#204ECF" opacity=".6" transform="rotate(-45 305.585 304.972)" cx="305.585" cy="304.972" r="175.498"/><circle stroke="#204ECF" opacity=".4" transform="rotate(-45 305.585 304.972)" cx="305.585" cy="304.972" r="195.498"/><circle stroke="#204ECF" opacity=".2" transform="rotate(-45 305.585 304.972)" cx="305.585" cy="304.972" r="215.498"/><path stroke="#00CC83" d="M603 308.5h50"/><path stroke="#204ECF" d="M492 308.5h50"/><circle fill="#FFF" fill-rule="nonzero" transform="rotate(-89.25 441.232 308.832)" cx="441.232" cy="308.832" r="50.699"/><path d="M342.398 299.32L297.606 254l-10.414 10.461 15.23 15.403L269 313.526 313.945 359l10.28-10.346-15.363-15.557 33.536-33.777zm-42.843 22.274a1.49 1.49 0 01-.917 0c-.306-.097-.554-.232-1.089-.792l-6.058-6.137c-.535-.54-.688-.811-.764-1.12a1.533 1.533 0 010-.926c.096-.31.23-.56.784-1.1l19.09-19.244c.535-.54.802-.695 1.108-.772a1.49 1.49 0 01.917 0c.306.096.554.231 1.09.791l6.057 6.138c.535.54.688.81.764 1.12.096.308.096.617 0 .926-.095.309-.23.56-.783 1.1l-19.09 19.244c-.554.54-.822.695-1.109.772z" fill="#204ECF"/><circle stroke="#204ECF" stroke-width="2" transform="rotate(-89.25 441.232 308.832)" cx="441.232" cy="308.832" r="50.699"/><circle fill="#455065" fill-rule="nonzero" transform="rotate(-71.011 253.42 179.365)" cx="253.42" cy="179.365" r="35.501"/><circle fill="#455065" fill-rule="nonzero" transform="rotate(-39.147 193.387 228.803)" cx="193.387" cy="228.803" r="48.499"/><circle fill="#455065" fill-rule="nonzero" transform="rotate(-3.806 171.5 284.802)" cx="171.5" cy="284.802" r="33"/><circle fill="#455065" fill-rule="nonzero" transform="rotate(-7.846 176.598 347.085)" cx="176.598" cy="347.085" r="38.098"/><circle fill="#455065" fill-rule="nonzero" transform="rotate(-12.804 335.191 437.179)" cx="335.191" cy="437.179" r="56.998"/><circle fill="#455065" fill-rule="nonzero" transform="rotate(-71.772 411 389.796)" cx="411" cy="389.796" r="25.1"/><circle fill="#455065" fill-rule="nonzero" transform="rotate(-89.25 441.05 308.521)" cx="441.05" cy="308.521" r="39.499"/><circle fill="#455065" fill-rule="nonzero" transform="rotate(-56.66 418.57 229.267)" cx="418.57" cy="229.267" r="17.6"/><circle fill="#455065" fill-rule="nonzero" transform="rotate(-23.222 376.416 189.292)" cx="376.416" cy="189.292" r="35.101"/><circle fill="#455065" fill-rule="nonzero" transform="rotate(-88.793 325.245 170.625)" cx="325.245" cy="170.625" r="26.001"/><circle stroke="#EBECED" stroke-width="2" fill="#204ECF" fill-rule="nonzero" transform="rotate(-39.147 193.387 228.803)" cx="193.387" cy="228.803" r="48.499"/><circle stroke="#EBECED" stroke-width="2" fill="#204ECF" fill-rule="nonzero" transform="rotate(-7.846 176.598 347.085)" cx="176.598" cy="347.085" r="38.098"/><circle stroke="#EBECED" stroke-width="2" fill="#204ECF" fill-rule="nonzero" transform="rotate(-12.804 335.191 437.179)" cx="335.191" cy="437.179" r="56.998"/><circle stroke="#EBECED" stroke-width="2" fill="#204ECF" fill-rule="nonzero" transform="rotate(-71.772 411 389.796)" cx="411" cy="389.796" r="25.1"/><circle stroke="#FFF" stroke-width="2" fill="#183A9E" fill-rule="nonzero" transform="rotate(-89.25 441.05 308.521)" cx="441.05" cy="308.521" r="39.499"/><circle stroke="#EBECED" stroke-width="2" fill="#204ECF" fill-rule="nonzero" transform="rotate(-56.66 418.57 229.267)" cx="418.57" cy="229.267" r="17.6"/><circle stroke="#EBECED" stroke-width="2" fill="#204ECF" fill-rule="nonzero" transform="rotate(-88.793 325.245 170.625)" cx="325.245" cy="170.625" r="26.001"/><text transform="translate(317 164)" fill="#FFF" font-family="Helvetica" font-size="12"><tspan x="0" y="11.645">UX</tspan></text><text transform="translate(406 223)" fill="#FFF" font-family="Helvetica" font-size="12"><tspan x=".914" y="11.301">PHP</tspan></text><text transform="translate(431 302)" fill="#FFF" font-family="Helvetica" font-size="12"><tspan x=".486" y="11.531">iOS</tspan></text><text transform="translate(744 302)" fill="#000" font-family="Helvetica" font-size="12"><tspan x=".943" y="11.531">Team</tspan></text><text transform="translate(396 383)" fill="#FFF" font-family="Helvetica" font-size="12"><tspan x=".037" y="11.785">FP&amp;A</tspan></text><g fill="#FFF" font-family="Helvetica" font-size="12"><text transform="translate(316.285 421.162)"><tspan x="0" y="11">Project</tspan></text><text transform="translate(311.285 435.162)"><tspan x=".1" y="11.4">Manager</tspan></text></g><text transform="translate(147 341)" fill="#FFF" font-family="Helvetica" font-size="12"><tspan x=".649" y="11.123">HTML/CSS</tspan></text><g fill="#FFF" font-family="Helvetica" font-size="12"><text transform="translate(167.016 212.805)"><tspan x="0" y="11">Front-End</tspan></text><text transform="translate(165.016 226.805)"><tspan x=".6" y="11.4">Developer</tspan></text></g><circle stroke="#FFF" stroke-width="2" fill="#00CC83" fill-rule="nonzero" cx="572.5" cy="308.5" r="30.5"/><path d="M572.5 299.5v18m9-9h-18" stroke="#FFF" stroke-width="3"/><circle stroke="#00CC83" stroke-width="2" cx="760" cy="308.8" r="42"/><circle stroke="#00CC83" opacity=".8" cx="760" cy="308.8" r="52"/><circle stroke="#00CC83" opacity=".6" cx="760" cy="308.8" r="62"/><g opacity=".25" transform="translate(747 258)" fill="#262D3D" fill-rule="nonzero"><circle cx="13" cy="97.8" r="12.9"/><circle cx="55" cy="55.8" r="12.9"/><circle cx="13" cy="13.8" r="12.9"/></g><circle stroke="#00CC83" opacity=".4" cx="760" cy="308.8" r="72"/><circle stroke="#00CC83" opacity=".2" cx="760" cy="308.8" r="82"/><g transform="translate(747 253)" fill="#EBECED" fill-rule="nonzero"><circle cx="13" cy="97.8" r="12.9"/><circle cx="55" cy="55.8" r="12.9"/><circle cx="13" cy="13.8" r="12.9"/></g><circle stroke="#204ECF" cx="760" cy="347.5" r="3.3"/><path d="M751.3 360.4c1.3-3.5 4.7-5.9 8.6-5.9 3.8 0 7.1 2.3 8.5 5.6" stroke="#204ECF"/><circle stroke="#204ECF" cx="802" cy="305.5" r="3.3"/><path d="M793.3 318.4c1.3-3.5 4.7-5.9 8.6-5.9 3.8 0 7.1 2.3 8.5 5.6" stroke="#204ECF"/><path stroke="#00CC83" d="M646.3 301.9l6.7 6.6-6.7 6.7"/><circle stroke="#FFF" stroke-width="2" fill="#183A9E" fill-rule="nonzero" cx="492" cy="308.5" r="5.2"/><circle stroke="#204ECF" cx="760" cy="263.4" r="3.3"/><path d="M751.3 276.4c1.3-3.5 4.7-5.9 8.6-5.9 3.8 0 7.1 2.3 8.5 5.6" stroke="#204ECF"/><circle stroke="#204ECF" stroke-width="3" cx="760" cy="350.8" r="12.9"/><circle stroke="#204ECF" stroke-width="3" cx="802" cy="308.8" r="12.9"/><circle stroke="#204ECF" stroke-width="3" cx="760" cy="266.8" r="12.9"/><circle fill="#455065" fill-rule="nonzero" transform="rotate(-49.376 217.475 407.573)" cx="217.475" cy="407.573" r="44.8"/><circle stroke="#EBECED" stroke-width="2" fill="#204ECF" fill-rule="nonzero" transform="rotate(-49.376 217.475 407.573)" cx="217.475" cy="407.573" r="44.8"/><g fill="#FFF" font-family="Helvetica" font-size="12"><text transform="translate(198.72 391.612)"><tspan x="0" y="11">Market</tspan></text><text transform="translate(191.72 405.612)"><tspan x=".7" y="11.4">Research</tspan></text></g><circle stroke="#EBECED" stroke-width="2" fill="#183A9E" fill-rule="nonzero" transform="rotate(-3.806 171.5 284.802)" cx="171.5" cy="284.802" r="33"/><text transform="translate(165 278)" fill="#FFF" font-family="Helvetica" font-size="12"><tspan x=".63" y="11.806">UI</tspan></text><circle stroke="#EBECED" stroke-width="2" fill="#183A9E" fill-rule="nonzero" transform="rotate(-71.011 253.42 179.365)" cx="253.42" cy="179.365" r="35.501"/><text transform="translate(241 173)" fill="#FFF" font-family="Helvetica" font-size="12"><tspan x=".742" y="11.374">PHP</tspan></text><circle stroke="#EBECED" stroke-width="2" fill="#183A9E" fill-rule="nonzero" transform="rotate(-23.222 376.416 189.292)" cx="376.416" cy="189.292" r="35.101"/><g fill="#FFF" font-family="Helvetica" font-size="12"><text transform="translate(357.488 173.262)"><tspan x="0" y="11">Project</tspan></text><text transform="translate(352.488 187.262)"><tspan x=".1" y="11.4">Manager</tspan></text></g></g></svg>
